<svg width="700" height="300" xmlns="http://www.w3.org/2000/svg">
  <rect width="700" height="300" fill="#ffffff"/>
  <text x="350" y="30" text-anchor="middle" font-family="Arial" font-size="18" font-weight="bold" fill="#000">AI Developer Task Completion Timeline</text>
  
  <!-- Time axis -->
  <line x1="50" y1="250" x2="650" y2="250" stroke="#666" stroke-width="2"/>
  
  <!-- Time labels -->
  <text x="50" y="270" font-size="12" fill="#666">0:00</text>
  <text x="150" y="270" font-size="12" fill="#666">2:00</text>
  <text x="250" y="270" font-size="12" fill="#666">4:00</text>
  <text x="350" y="270" font-size="12" fill="#666">6:00</text>
  <text x="450" y="270" font-size="12" fill="#666">8:00</text>
  <text x="550" y="270" font-size="12" fill="#666">10:00</text>
  <text x="650" y="270" font-size="12" fill="#666">13:00</text>
  
  <!-- Tasks -->
  <!-- TL Schema Definitions (37m) -->
  <rect x="50" y="60" width="30" height="20" rx="3" fill="#10b981" stroke="#059669"/>
  <text x="10" y="75" font-size="11" fill="#000">TL Schema</text>
  
  <!-- Basic Request Implementation (13m) -->
  <rect x="80" y="90" width="11" height="20" rx="3" fill="#10b981" stroke="#059669"/>
  <text x="10" y="105" font-size="11" fill="#000">Basic Request</text>
  
  <!-- Update Handling System (11m) -->
  <rect x="91" y="120" width="9" height="20" rx="3" fill="#10b981" stroke="#059669"/>
  <text x="10" y="135" font-size="11" fill="#000">Update System</text>
  
  <!-- Transcription State Management (8m) -->
  <rect x="100" y="150" width="7" height="20" rx="3" fill="#10b981" stroke="#059669"/>
  <text x="10" y="165" font-size="11" fill="#000">State Mgmt</text>
  
  <!-- Basic Testing Infrastructure (6h) -->
  <rect x="107" y="180" width="230" height="20" rx="3" fill="#10b981" stroke="#059669"/>
  <text x="10" y="195" font-size="11" fill="#000">Testing Infra</text>
  
  <!-- Basic Transcription Manager (6.5h) -->
  <rect x="337" y="210" width="250" height="20" rx="3" fill="#10b981" stroke="#059669"/>
  <text x="10" y="225" font-size="11" fill="#000">Transcription Mgr</text>
</svg>