<svg width="600" height="400" xmlns="http://www.w3.org/2000/svg">
  <rect width="600" height="400" fill="#ffffff"/>
  <text x="300" y="30" text-anchor="middle" font-family="Arial" font-size="18" font-weight="bold" fill="#000">Cost for 10 User Stories</text>
  
  <!-- US Team -->
  <rect x="50" y="60" width="140" height="80" rx="8" fill="#fee2e2" stroke="#dc2626" stroke-width="2"/>
  <text x="120" y="85" text-anchor="middle" font-family="Arial" font-size="13" font-weight="bold" fill="#000">US Team</text>
  <text x="120" y="105" text-anchor="middle" font-family="Arial" font-size="14" font-weight="bold" fill="#000">$2,083</text>
  <text x="120" y="125" text-anchor="middle" font-family="Arial" font-size="11" fill="#666">(0.25 FTE)</text>
  
  <!-- Eastern Europe -->
  <rect x="210" y="60" width="140" height="80" rx="8" fill="#fed7aa" stroke="#ea580c" stroke-width="2"/>
  <text x="280" y="85" text-anchor="middle" font-family="Arial" font-size="13" font-weight="bold" fill="#000">Eastern Europe</text>
  <text x="280" y="105" text-anchor="middle" font-family="Arial" font-size="14" font-weight="bold" fill="#000">$833</text>
  <text x="280" y="125" text-anchor="middle" font-family="Arial" font-size="11" fill="#666">(0.25 FTE)</text>
  
  <!-- India -->
  <rect x="370" y="60" width="140" height="80" rx="8" fill="#d1fae5" stroke="#059669" stroke-width="2"/>
  <text x="440" y="85" text-anchor="middle" font-family="Arial" font-size="13" font-weight="bold" fill="#000">India</text>
  <text x="440" y="105" text-anchor="middle" font-family="Arial" font-size="14" font-weight="bold" fill="#000">$200</text>
  <text x="440" y="125" text-anchor="middle" font-family="Arial" font-size="11" fill="#666">(0.25 FTE)</text>
  
  <!-- AI Developer -->
  <rect x="210" y="220" width="140" height="80" rx="8" fill="#e0f2fe" stroke="#0284c7" stroke-width="4"/>
  <text x="280" y="245" text-anchor="middle" font-family="Arial" font-size="13" font-weight="bold" fill="#000">AI Developer</text>
  <text x="280" y="265" text-anchor="middle" font-family="Arial" font-size="14" font-weight="bold" fill="#000">$91</text>
  <text x="280" y="285" text-anchor="middle" font-family="Arial" font-size="11" fill="#666">(3% capacity)</text>
  
  <!-- Arrows -->
  <path d="M 120 140 L 280 220" stroke="#666" stroke-width="2" marker-end="url(#arrow1)"/>
  <text x="150" y="175" font-size="12" fill="#666">23x more</text>
  
  <path d="M 280 140 L 280 220" stroke="#666" stroke-width="2" marker-end="url(#arrow1)"/>
  <text x="290" y="180" font-size="12" fill="#666">9x more</text>
  
  <path d="M 440 140 L 280 220" stroke="#666" stroke-width="2" marker-end="url(#arrow1)"/>
  <text x="380" y="175" font-size="12" fill="#666">2.2x more</text>
  
  <defs>
    <marker id="arrow1" markerWidth="10" markerHeight="7" refX="9" refY="3.5" orient="auto">
      <polygon points="0 0, 10 3.5, 0 7" fill="#666"/>
    </marker>
  </defs>
</svg>